<svg width="11" height="19" viewBox="0 0 11 19" fill="none" xmlns="http://www.w3.org/2000/svg">
<path d="M9.0071 0.320557H1.49256C0.773915 0.320557 0.193359 0.903367 0.193359 1.62202V16.8799C0.193359 17.5963 0.773915 18.1797 1.49256 18.1797H9.0071C9.72462 18.1797 10.3074 17.5969 10.3074 16.8799V1.62202C10.3069 0.903367 9.72462 0.320557 9.0071 0.320557ZM9.33288 14.7905H1.1679V2.51596H9.33288V14.7905ZM6.99206 1.64118H3.50816V1.26128H6.99262L6.99206 1.64118ZM8.4829 1.46758C8.4829 1.65133 8.33297 1.80013 8.14979 1.80013C7.96604 1.80013 7.81667 1.65076 7.81667 1.46758C7.81667 1.28439 7.96604 1.13503 8.14979 1.13503C8.33354 1.13446 8.4829 1.28383 8.4829 1.46758ZM6.83593 16.7931H3.66317V15.8169H6.83593V16.7931Z" fill="#999595"/>
</svg>
