<svg width="17" height="19" viewBox="0 0 17 19" fill="none" xmlns="http://www.w3.org/2000/svg">
<path d="M15.8519 4.74626H9.23475V0.861676C9.23475 0.666677 9.07882 0.508545 8.88648 0.508545H0.527959C0.335609 0.508545 0.179688 0.666677 0.179688 0.861676V18.2357C0.179688 18.4307 0.335609 18.5888 0.527959 18.5888H8.88648H15.8519C16.0443 18.5888 16.2002 18.4307 16.2002 18.2357V5.09939C16.2002 4.90436 16.0442 4.74626 15.8519 4.74626ZM9.23475 5.45252H15.5036V14.3512H9.23475V5.45252ZM3.6624 17.8826V15.0575H5.75203V17.8826H3.6624ZM6.1003 14.3512H3.31413C3.12178 14.3512 2.96586 14.5094 2.96586 14.7044V17.8826H0.87623V1.21481H8.5382V17.8826H6.44857V14.7044C6.44857 14.5094 6.29262 14.3512 6.1003 14.3512ZM9.23471 17.8826V15.0575H15.5036V17.8826H9.23471Z" fill="#999595"/>
</svg>
