<svg width="19" height="14" viewBox="0 0 19 14" fill="none" xmlns="http://www.w3.org/2000/svg">
<path d="M17.002 0.737305H2.31956C1.45452 0.737305 0.753906 1.44227 0.753906 2.30296V11.6969C0.753906 12.5627 1.45967 13.2626 2.31956 13.2626H17.002C17.8598 13.2626 18.5676 12.5657 18.5676 11.6969V2.30296C18.5676 1.4438 17.8698 0.737305 17.002 0.737305ZM16.7827 1.78108C16.4628 2.09925 10.9579 7.57516 10.7679 7.76422C10.4721 8.05996 10.079 8.22279 9.66076 8.22279C9.24256 8.22279 8.84941 8.05992 8.5527 7.76325C8.42487 7.63608 2.98073 2.22064 2.53883 1.78108H16.7827ZM1.79768 11.4845V2.51607L6.3081 7.00272L1.79768 11.4845ZM2.53949 12.2188L7.04813 7.73883L7.81562 8.50227C8.30849 8.99514 8.96377 9.26656 9.66076 9.26656C10.3578 9.26656 11.013 8.99514 11.5049 8.50325L12.2734 7.73883L16.782 12.2188H2.53949ZM17.5239 11.4845L13.0134 7.00272L17.5239 2.51607V11.4845Z" fill="#999595"/>
</svg>
