<svg width="14" height="19" viewBox="0 0 14 19" fill="none" xmlns="http://www.w3.org/2000/svg">
<path d="M13.4285 7.4545H12.3123V5.96622C12.3123 3.09401 9.97567 0.757324 7.10342 0.757324C4.23117 0.757324 1.89452 3.09401 1.89452 5.96622V7.4545H0.778327C0.572668 7.4545 0.40625 7.62091 0.40625 7.82657V17.1282C0.40625 17.949 1.0737 18.6165 1.89452 18.6165H12.3124C13.1331 18.6165 13.8006 17.949 13.8006 17.1282V7.82657C13.8006 7.62091 13.6342 7.4545 13.4285 7.4545ZM8.21745 15.2268C8.22907 15.3318 8.19531 15.4372 8.12481 15.516C8.05432 15.5949 7.9533 15.6399 7.84758 15.6399H6.3593C6.25358 15.6399 6.15256 15.5949 6.08207 15.516C6.01157 15.4372 5.97777 15.3318 5.98942 15.2268L6.22414 13.1162C5.84299 12.8389 5.61519 12.4004 5.61519 11.9193C5.61519 11.0985 6.28264 10.431 7.10346 10.431C7.92428 10.431 8.59173 11.0985 8.59173 11.9193C8.59173 12.4004 8.36392 12.8389 7.98278 13.1162L8.21745 15.2268ZM10.0799 7.4545H4.12691V5.96622C4.12691 4.325 5.4622 2.98972 7.10342 2.98972C8.74465 2.98972 10.0799 4.325 10.0799 5.96622V7.4545Z" fill="#999595"/>
</svg>
