<svg width="14" height="19" viewBox="0 0 14 19" fill="none" xmlns="http://www.w3.org/2000/svg">
<path d="M6.95618 0.486328C3.32401 0.486328 0.369141 3.48243 0.369141 7.16528C0.369141 8.37771 0.905403 9.68167 0.927877 9.73668C1.10108 10.1535 1.44283 10.801 1.68926 11.1805L6.20564 18.1192C6.39047 18.4036 6.66403 18.5666 6.95618 18.5666C7.24833 18.5666 7.52189 18.4036 7.70672 18.1195L12.2235 11.1805C12.4703 10.801 12.8117 10.1535 12.9849 9.73668C13.0073 9.68207 13.5432 8.3781 13.5432 7.16528C13.5432 3.48243 10.5884 0.486328 6.95618 0.486328ZM12.2704 9.4318C12.1158 9.80543 11.7977 10.4077 11.5764 10.7479L7.05964 17.687C6.97052 17.8241 6.94223 17.8241 6.85311 17.687L2.33634 10.7479C2.11509 10.4077 1.79698 9.80504 1.64238 9.43141C1.63579 9.4153 1.14409 8.21505 1.14409 7.16528C1.14409 3.91577 3.75139 1.27209 6.95618 1.27209C10.161 1.27209 12.7683 3.91577 12.7683 7.16528C12.7683 8.21662 12.2754 9.42001 12.2704 9.4318Z" fill="#999595"/>
<path d="M6.956 3.62988C5.03298 3.62988 3.46875 5.21633 3.46875 7.1658C3.46875 9.11526 5.03298 10.7017 6.956 10.7017C8.87903 10.7017 10.4433 9.11526 10.4433 7.1658C10.4433 5.21633 8.87903 3.62988 6.956 3.62988ZM6.956 9.91595C5.46075 9.91595 4.2437 8.68231 4.2437 7.1658C4.2437 5.64928 5.46075 4.41564 6.956 4.41564C8.45126 4.41564 9.66831 5.64928 9.66831 7.1658C9.66831 8.68231 8.45126 9.91595 6.956 9.91595Z" fill="#999595"/>
</svg>
