<svg width="16" height="19" viewBox="0 0 16 19" fill="none" xmlns="http://www.w3.org/2000/svg">
<path d="M8.06442 0.884155C5.4679 0.884155 3.35547 2.99659 3.35547 5.5931C3.35547 8.18962 5.4679 10.3021 8.06442 10.3021C10.6609 10.3021 12.7734 8.18962 12.7734 5.5931C12.7734 2.99659 10.6609 0.884155 8.06442 0.884155Z" fill="#999595"/>
<path d="M13.9219 13.3784C12.6327 12.0694 10.9237 11.3485 9.10953 11.3485H7.01666C5.20256 11.3485 3.49346 12.0694 2.20425 13.3784C0.92136 14.681 0.214844 16.4004 0.214844 18.2201C0.214844 18.509 0.449105 18.7433 0.73806 18.7433H15.3881C15.6771 18.7433 15.9113 18.509 15.9113 18.2201C15.9113 16.4004 15.2048 14.681 13.9219 13.3784Z" fill="#999595"/>
</svg>
